<svg width="1777" height="305" viewBox="0 0 1777 305" fill="none" xmlns="http://www.w3.org/2000/svg">
<path d="M303.361 223.772C304.176 222.965 305.47 221.676 305.838 221.292C302.122 215.246 301.193 212.301 299.955 205.791C296.065 185.351 295.465 148.125 295.465 148.125C295.465 148.125 296.239 87.0494 277.816 51.241C264.192 24.7615 241.743 12.3324 216.818 5.04666C207.076 2.19912 180.9 -4.56425 151.794 10.1621C136.416 17.9426 126.206 25.0576 120.057 32.0192C129.025 23.1521 147.481 14.3976 178.194 14.5257C210.175 14.6591 241.279 23.9584 260.631 51.241C265.875 58.6343 271.778 76.223 274.874 91.2348C277.816 105.496 278.095 107.356 279.209 117.277C279.819 122.703 281.532 140.994 281.532 155.411C281.532 176.358 277.359 213.163 293.869 233.346L299.955 227.028C299.955 227.028 296.494 225.632 292.988 211.216C288.851 194.205 288.808 153.241 288.808 153.241C288.808 153.241 293.869 198.195 296.704 208.271C298.375 214.211 303.361 223.772 303.361 223.772Z" fill="#F63535"/>
<path d="M124.082 33.7244C124.082 33.7244 102.694 52.1698 97.608 61.0069C90.7071 72.998 85.7552 82.5326 83.9835 96.3503C83.2814 101.827 84.0228 109.837 85.4553 116.037C87.8544 126.423 93.8923 140.529 93.8923 140.529L98.9216 136.125C98.9216 136.125 90.3386 116.835 89.2478 107.976C87.6618 95.095 89.2104 88.456 93.8923 76.3533C97.1567 67.915 100.146 64.2433 104.842 56.5115C109.021 49.6305 124.082 33.7244 124.082 33.7244Z" fill="#F63535"/>
<path d="M120.057 32.0192C126.206 25.0576 136.416 17.9426 151.794 10.1621C180.9 -4.56425 207.076 2.19912 216.818 5.04666C241.743 12.3324 264.192 24.7615 277.816 51.241C296.239 87.0494 295.465 148.125 295.465 148.125C295.465 148.125 296.065 185.351 299.955 205.791C301.193 212.301 302.122 215.246 305.838 221.292C305.47 221.676 304.176 222.965 303.361 223.772C303.361 223.772 298.375 214.211 296.704 208.271C293.869 198.195 288.808 153.241 288.808 153.241C288.808 153.241 288.851 194.205 292.988 211.216C296.494 225.632 299.955 227.028 299.955 227.028L293.869 233.346C277.359 213.163 281.532 176.358 281.532 155.411C281.532 140.994 279.819 122.703 279.209 117.277C278.095 107.356 277.816 105.496 274.874 91.2348C271.778 76.223 265.875 58.6343 260.631 51.241C241.279 23.9584 210.175 14.6591 178.194 14.5257C147.481 14.3976 129.025 23.1521 120.057 32.0192ZM120.057 32.0192C118.612 33.6543 112.935 39.4777 112.935 39.4777C113.433 38.7369 119.06 33.005 120.057 32.0192ZM124.082 33.7244C124.082 33.7244 102.694 52.1698 97.608 61.0069C90.7071 72.998 85.7552 82.5326 83.9835 96.3503C83.2814 101.827 84.0228 109.837 85.4553 116.037C87.8544 126.423 93.8923 140.529 93.8923 140.529L98.9216 136.125C98.9216 136.125 90.3386 116.835 89.2478 107.976C87.6618 95.095 89.2104 88.456 93.8923 76.3533C97.1567 67.915 100.146 64.2433 104.842 56.5115C109.021 49.6305 124.082 33.7244 124.082 33.7244Z" stroke="white"/>
<path d="M83.2192 149.701L90.0177 143.363C90.0177 143.363 79.2047 123.731 79.2047 102.553C79.2047 88.7944 83.0203 81.2053 87.421 71.3777C92.8922 59.1593 106.33 42.8223 106.33 42.8223C106.33 42.8223 90.1518 58.4536 83.219 70.8489C76.5978 82.6869 72.5625 92.8324 72.5625 106.417C72.5625 124.813 83.2192 149.701 83.2192 149.701Z" fill="#F63535" stroke="white"/>
<path d="M136.38 200.508L145.984 193.073C145.984 193.073 165.827 202.176 181.92 205.774C206.17 211.197 223.853 210.959 248.216 215.843C269.436 220.096 287.56 238.612 287.56 238.612C287.56 238.612 267.989 228.151 244.344 223.897C218.04 219.165 197.72 218.321 171.077 212.125C155.681 208.544 136.38 200.508 136.38 200.508Z" fill="#F63535" stroke="white"/>
<path d="M149.082 191.115L153.989 186.877C153.989 186.877 165.191 192.558 185.173 197.779C201.245 201.979 226.53 207.3 226.53 207.3C226.53 207.3 206.394 208.319 168.075 196.868C151.56 191.932 149.082 191.115 149.082 191.115Z" fill="#F63535" stroke="white"/>
<circle cx="139.975" cy="58.5903" r="4.23506" fill="#F63535" stroke="white" stroke-width="0.5"/>
<circle cx="155.857" cy="73.4129" r="4.23506" fill="#F63535" stroke="white" stroke-width="0.5"/>
<circle cx="202.442" cy="56.4727" r="4.23506" fill="#F63535" stroke="white" stroke-width="0.5"/>
<circle cx="171.738" cy="57.5316" r="4.23506" fill="#F63535" stroke="white" stroke-width="0.5"/>
<circle cx="217.265" cy="71.2954" r="4.23506" fill="#F63535" stroke="white" stroke-width="0.5"/>
<circle cx="186.561" cy="72.3542" r="4.23506" fill="#F63535" stroke="white" stroke-width="0.5"/>
<circle cx="201.383" cy="87.1769" r="4.23506" fill="#F63535" stroke="white" stroke-width="0.5"/>
<circle cx="216.207" cy="103.058" r="4.23506" fill="#F63535" stroke="white" stroke-width="0.5"/>
<circle cx="232.088" cy="117.881" r="4.23506" fill="#F63535" stroke="white" stroke-width="0.5"/>
<circle cx="215.147" cy="133.763" r="4.23506" fill="#F63535" stroke="white" stroke-width="0.5"/>
<circle cx="231.029" cy="148.585" r="4.23506" fill="#F63535" stroke="white" stroke-width="0.5"/>
<circle cx="232.088" cy="86.1181" r="4.23506" fill="#F63535" stroke="white" stroke-width="0.5"/>
<circle cx="233.147" cy="55.414" r="4.23506" fill="#F63535" stroke="white" stroke-width="0.5"/>
<path d="M110.203 134.212L1 243.879L116.089 150.937C116.089 150.937 113.522 146.491 112.526 143.504C111.132 139.322 110.203 134.212 110.203 134.212Z" fill="#F63535"/>
<path d="M130.494 166.114L55.4324 219.633L119.806 156.512C119.806 156.512 123.834 160.764 125.073 162.088C126.312 163.411 130.494 166.114 130.494 166.114Z" fill="#F63535"/>
<path d="M135.451 169.057C135.451 169.057 139.649 171.042 143.196 172.309C145.364 173.083 151.25 173.858 151.25 173.858L65.3094 239.135L135.451 169.057Z" fill="#F63535"/>
<path d="M110.203 134.212L1 243.879L116.089 150.937C116.089 150.937 113.522 146.491 112.526 143.504C111.132 139.322 110.203 134.212 110.203 134.212Z" stroke="white"/>
<path d="M130.494 166.114L55.4324 219.633L119.806 156.512C119.806 156.512 123.834 160.764 125.073 162.088C126.312 163.411 130.494 166.114 130.494 166.114Z" stroke="white"/>
<path d="M135.451 169.057C135.451 169.057 139.649 171.042 143.196 172.309C145.364 173.083 151.25 173.858 151.25 173.858L65.3094 239.135L135.451 169.057Z" stroke="white"/>
<path d="M296.189 243.55L311.385 228.354L359.997 279.308L364.822 281.345L371.458 287.981L355.043 303.669L348.692 297.273L346.214 292.008L296.189 243.55Z" fill="#123958" stroke="white" stroke-width="0.5"/>
<path d="M311.844 240.435L308.889 243.811L350.677 285.599L354.053 282.222L311.844 240.435Z" fill="white" stroke="white"/>
<path fill-rule="evenodd" clip-rule="evenodd" d="M158.247 120.408C160.136 118.092 165.287 115.995 167.314 115.1C169.34 114.205 168.304 112.234 167.587 112.414C166.871 112.594 166.279 112.113 166.378 110.557C166.477 109.001 165.359 108.637 166.54 107.344C167.721 106.051 175.357 98.451 175.203 97.5989C175.05 96.7469 177.828 97.4089 172.881 104.798C173.637 105.959 177.55 103.763 178.47 103.967C179.39 104.171 178.864 105.924 178.531 106.599C178.198 107.273 173.339 108.37 172.219 113.931C169.958 117.217 161.538 122.142 161.538 122.142C161.538 122.142 170.692 130.994 166.573 133.822C162.454 136.65 157.973 140.274 158.33 142.328C157.489 143.17 156.181 142.868 157.615 143.636C159.049 144.404 158.695 145.733 157.382 146.337C158.189 144.885 156.723 144.128 155.797 144.519C154.87 144.91 154.402 145.537 154.042 148.653C153.915 149.747 152.075 149.415 151.784 150.414C151.492 151.413 152.472 151.992 152.472 151.992C152.472 151.992 151.011 152.369 150.515 150.636C150.167 149.424 151.507 147.354 152.245 146.736C150.7 147.884 149.231 149.668 148.094 150.392C147.065 151.047 146.02 150.457 146.383 151.38C146.767 152.358 147.002 152.489 147.391 152.655C146.868 152.695 145.276 152.908 145.402 150.999C145.566 148.505 152.239 146.414 150.067 146.581C147.858 146.75 147.474 147.578 147.027 147.923C146.58 148.268 145.4 147.639 145.177 146.362C145.01 145.407 144.12 145.494 143.786 146.005C143.483 146.469 143.494 146.92 143.494 146.92C143.061 146.517 142.321 144.786 144.989 144.79C146.525 144.792 146.02 146.697 149.818 145.45C153.633 144.197 164.555 132.492 162.202 131.627C157.603 129.936 165.645 126.194 163.466 125.257C161.408 124.372 155.845 123.797 158.247 120.408Z" fill="#F63535" stroke="white" stroke-width="0.5" stroke-linecap="round"/>
<path fill-rule="evenodd" clip-rule="evenodd" d="M138.249 113.787C140.28 110.543 148.071 108.607 150.003 107.969C149.862 104.525 158.968 103.711 160.233 102.595C160.625 103.582 159.068 104.436 159.428 104.317C168.799 102.56 162.025 115.079 157.33 119.951C156.604 120.704 160.211 119.956 158.843 122.223C159.13 119.655 164.23 118.855 167.172 117.028C171.143 114.562 171.508 112.154 166.974 111.982C161.248 111.765 179.891 100.093 183.021 95.3864C184.518 97.3874 176.919 104.724 172.787 108.84C176.534 107.391 184.085 101.511 184.39 99.9346C184.84 100.821 187.408 103.783 174.02 111.107C181.601 109.5 185.158 106.114 186.022 105.645C186.319 105.79 187.275 110.152 173.765 113.818C180.405 113.291 183.838 111.781 184.111 111.606C184.426 111.405 185.193 115.5 172.71 116.59C173.812 117.517 181.67 116.663 181.404 116.924C178.153 120.11 172.095 118.532 169.533 118.746C172.515 120.841 174.378 120.056 175.584 120.879C171.142 123.974 167.82 120.003 167.086 120.322C165.731 120.912 169.935 122.903 168.622 123.511C167.418 124.069 164.321 122.069 163.73 122.384C163.138 122.7 166.409 125.235 169.838 123.399C171.712 122.395 173.728 124.826 175.188 123.666C177.861 121.542 181.611 118.201 185.426 120.124C187.25 121.343 181.788 121.231 178.174 123.566C173.989 126.27 171.72 124.931 171.72 124.931C171.72 124.931 173.47 125.789 179.386 123.356C185.302 120.923 189.282 120.921 188.338 124.971C186.325 124.054 184.521 123.436 177.384 126.252C175.167 127.126 172.224 126.241 172.224 126.241C172.224 126.241 173.095 127.744 178.732 125.806C185.066 123.63 190.638 124.611 188.107 127.577C186.599 129.343 181.996 126.31 179.197 127.213C176.69 128.021 174.592 128.462 173.622 128.333C173.483 128.314 174.116 128.922 174.767 129.088C175.925 129.382 177.541 129.373 177.771 130.213C178.113 131.456 179.956 133.732 181.649 135.811C185.223 140.199 186.561 142.632 188.382 141.967C190.255 141.285 190.903 141.294 191.671 142.357C192.44 143.42 191.772 143.736 191.772 143.736C191.772 143.736 190.752 141.537 190.14 142.717C189.276 144.383 187.828 143.858 187.529 144.329C187.069 145.055 187.993 147.275 187.539 147.317C186.426 147.42 185.555 148.07 186.861 148.853C187.992 149.532 188.145 149.537 188.145 149.537C188.145 149.537 184.618 149.833 184.827 147.596C185.024 145.482 185.347 145.204 185.347 145.204C184.022 145.67 184.183 147.905 182.539 147.929C180.895 147.953 182.305 149.842 183.332 150.392C180.446 150.587 179.999 146.532 182.098 145.799C184.198 145.065 184.693 144.183 183.056 144.804C181.418 145.425 179.785 145.555 179.526 144.762C179.354 144.238 177.902 144.832 178.637 146.41C176.529 145.67 177.737 142.726 180.606 143.494C183.475 144.262 185.855 143.509 183.434 140.69C177.646 133.95 174.096 130.119 166.336 129.955C158.599 129.792 157.716 128.44 157.901 128.977C159.187 129.781 159.119 131.451 154.597 129.235C158.097 131.348 153.998 130.593 151.806 129.718C153.442 130.598 153.267 131.888 150.201 130.538C147.158 129.198 144.668 126.957 147.345 122.491C147.736 121.838 148.225 122.446 148.758 124.258C148.123 121.556 151.192 119.05 157.22 114.282C161.55 110.857 160.301 107.764 153.896 111.115C152.677 111.753 151.488 112.138 149.568 112.86C142.938 115.353 142.132 116.142 140.978 116.103C141.681 115.321 151.953 110.636 152.199 109.757C150.255 109.202 138.229 113.873 138.249 113.787Z" fill="#F63535" stroke="white" stroke-width="0.5" stroke-linecap="round"/>
<path d="M151.459 107.191C152.282 108.339 154.254 105.561 157.988 105.19Z" fill="#F63535"/>
<path d="M151.459 107.191C152.282 108.339 154.254 105.561 157.988 105.19" stroke="white" stroke-width="0.5" stroke-linecap="round"/>
<path fill-rule="evenodd" clip-rule="evenodd" d="M156.316 106.596C156.346 106.685 156.355 106.78 156.34 106.877C156.325 106.973 156.287 107.069 156.228 107.158C156.169 107.248 156.091 107.329 155.998 107.398C155.905 107.467 155.798 107.522 155.684 107.559C155.571 107.597 155.452 107.616 155.335 107.617C155.218 107.618 155.106 107.599 155.003 107.563C154.901 107.527 154.812 107.473 154.74 107.405C154.668 107.337 154.615 107.257 154.584 107.168C154.553 107.079 154.545 106.983 154.56 106.887C154.575 106.79 154.613 106.694 154.672 106.605C154.73 106.515 154.808 106.434 154.902 106.365C154.995 106.296 155.102 106.241 155.215 106.204C155.329 106.166 155.448 106.147 155.565 106.146C155.681 106.145 155.794 106.164 155.896 106.2C155.999 106.236 156.088 106.29 156.16 106.358C156.232 106.426 156.285 106.507 156.316 106.596Z" fill="#F63535" stroke="white" stroke-width="0.5" stroke-linecap="round"/>
<circle cx="162.868" cy="125.692" r="39.4988" stroke="#FFC24E" stroke-width="2"/>
<path d="M1022.81 215.134V89.2005H1065.07C1072.64 89.2005 1078.85 90.6516 1083.72 93.5538C1088.59 96.3523 1092.22 100.498 1094.6 105.992C1096.98 111.381 1098.17 117.963 1098.17 125.737C1098.17 135.48 1096.57 142.943 1093.35 148.125C1090.14 153.204 1085.79 156.728 1080.3 158.697C1074.81 160.667 1068.65 161.651 1061.81 161.651H1050.62V215.134H1022.81ZM1050.62 142.217H1059.95C1063.36 142.217 1065.95 141.595 1067.71 140.351C1069.48 139.108 1070.62 137.242 1071.13 134.754C1071.75 132.267 1072.07 129.105 1072.07 125.27C1072.07 122.057 1071.81 119.259 1071.29 116.875C1070.87 114.387 1069.79 112.418 1068.03 110.967C1066.26 109.516 1063.52 108.79 1059.79 108.79H1050.62V142.217Z" fill="white"/>
<path d="M1098.24 215.134L1122.01 89.2005H1153.71L1177.18 215.134H1151.54L1147.34 188.548H1128.85L1124.5 215.134H1098.24ZM1131.33 171.913H1144.7L1138.02 122.783L1131.33 171.913Z" fill="white"/>
<path d="M1189.88 215.134V89.2005H1221.74C1232.72 89.2005 1241.27 90.5998 1247.38 93.3983C1253.49 96.0932 1257.79 100.395 1260.28 106.303C1262.76 112.107 1264.01 119.673 1264.01 129.002V174.711C1264.01 184.143 1262.76 191.865 1260.28 197.877C1257.79 203.785 1253.49 208.138 1247.38 210.936C1241.37 213.735 1232.93 215.134 1222.05 215.134H1189.88ZM1217.7 195.856H1222.05C1226.3 195.856 1229.35 195.234 1231.22 193.99C1233.08 192.746 1234.22 190.88 1234.64 188.393C1235.16 185.905 1235.41 182.796 1235.41 179.064V124.182C1235.41 120.451 1235.1 117.445 1234.48 115.165C1233.96 112.884 1232.77 111.226 1230.91 110.19C1229.04 109.153 1226.04 108.635 1221.9 108.635H1217.7V195.856Z" fill="white"/>
<path d="M1280.94 215.134V89.2005H1337.5V108.168H1308.75V139.419H1330.66V158.697H1308.75V196.322H1337.81V215.134H1280.94Z" fill="white"/>
<path d="M1350.44 215.134V89.2005H1378.25V196.322H1407.16V215.134H1350.44Z" fill="white"/>
<path d="M405.497 217C396.795 217 389.906 215.186 384.83 211.558C379.857 207.931 376.283 202.852 374.108 196.322C372.036 189.688 371 182.07 371 173.467V131.178C371 122.265 372.14 114.543 374.419 108.013C376.698 101.483 380.583 96.456 386.073 92.9319C391.667 89.3042 399.23 87.4903 408.761 87.4903C418.084 87.4903 425.388 89.0451 430.671 92.1546C436.058 95.264 439.891 99.5655 442.17 105.059C444.449 110.552 445.589 116.979 445.589 124.338V132.422H418.395V122.161C418.395 119.466 418.188 116.979 417.773 114.698C417.463 112.418 416.634 110.604 415.287 109.257C414.044 107.806 411.972 107.08 409.071 107.08C406.067 107.08 403.892 107.909 402.545 109.568C401.198 111.122 400.318 113.092 399.903 115.476C399.592 117.86 399.437 120.347 399.437 122.938V181.241C399.437 184.04 399.696 186.683 400.214 189.17C400.836 191.554 401.871 193.523 403.322 195.078C404.876 196.529 407.051 197.255 409.848 197.255C412.749 197.255 414.976 196.477 416.53 194.923C418.084 193.368 419.172 191.347 419.794 188.859C420.415 186.372 420.726 183.729 420.726 180.93V166.16H409.382V149.835H445.744V215.134H427.408L425.854 204.718C424.196 208.242 421.762 211.196 418.55 213.58C415.339 215.86 410.988 217 405.497 217Z" fill="white"/>
<path d="M463.153 215.134V89.2005H497.806C506.301 89.2005 513.656 90.1334 519.872 91.9991C526.087 93.8648 530.905 97.2334 534.323 102.105C537.845 106.873 539.607 113.662 539.607 122.472C539.607 127.654 539.192 132.267 538.363 136.309C537.535 140.351 535.981 143.875 533.702 146.881C531.526 149.783 528.367 152.219 524.223 154.189L541.471 215.134H512.724L498.894 158.697H490.969V215.134H463.153ZM490.969 142.684H498.738C502.675 142.684 505.731 142.01 507.906 140.662C510.082 139.211 511.584 137.19 512.413 134.599C513.345 131.904 513.811 128.691 513.811 124.96C513.811 119.57 512.827 115.372 510.859 112.366C508.891 109.36 505.265 107.857 499.981 107.857H490.969V142.684Z" fill="white"/>
<path d="M591.932 217C582.297 217 574.735 215.445 569.244 212.336C563.857 209.123 560.076 204.51 557.901 198.499C555.725 192.383 554.637 184.921 554.637 176.11V89.2005H582.142V180.308C582.142 182.899 582.349 185.491 582.763 188.082C583.178 190.673 584.058 192.798 585.405 194.456C586.855 196.115 589.031 196.944 591.932 196.944C594.936 196.944 597.111 196.115 598.458 194.456C599.805 192.798 600.634 190.673 600.944 188.082C601.359 185.491 601.566 182.899 601.566 180.308V89.2005H629.226V176.11C629.226 184.921 628.087 192.383 625.807 198.499C623.632 204.51 619.851 209.123 614.464 212.336C609.077 215.445 601.566 217 591.932 217Z" fill="white"/>
<path d="M662.774 215.134V163.672L638.843 89.2005H665.105L677.07 129.002L687.792 89.2005H712.966L689.502 163.672V215.134H662.774Z" fill="white"/>
<path d="M723.558 215.134V89.2005H780.121V108.168H751.374V139.419H773.284V158.697H751.374V196.322H780.432V215.134H723.558ZM744.692 79.2502L724.957 48H751.063L760.542 79.2502H744.692Z" fill="white"/>
<path d="M793.06 215.134V89.2005H827.713C836.208 89.2005 843.563 90.1334 849.779 91.9991C855.995 93.8648 860.812 97.2334 864.231 102.105C867.753 106.873 869.514 113.662 869.514 122.472C869.514 127.654 869.1 132.267 868.271 136.309C867.442 140.351 865.888 143.875 863.609 146.881C861.433 149.783 858.274 152.219 854.13 154.189L871.379 215.134H842.631L828.801 158.697H820.876V215.134H793.06ZM820.876 142.684H828.646C832.582 142.684 835.638 142.01 837.814 140.662C839.989 139.211 841.491 137.19 842.32 134.599C843.252 131.904 843.719 128.691 843.719 124.96C843.719 119.57 842.734 115.372 840.766 112.366C838.798 109.36 835.172 107.857 829.889 107.857H820.876V142.684Z" fill="white"/>
<path d="M886.236 215.134V89.2005H942.799V108.168H914.051V139.419H935.962V158.697H914.051V196.322H943.11V215.134H886.236Z" fill="white"/>
<path d="M1490.91 215.134C1481.37 215.134 1473.81 213.424 1468.22 210.004C1462.73 206.48 1458.84 201.608 1456.56 195.389C1454.28 189.067 1453.14 181.656 1453.14 173.156V127.758C1453.14 119.052 1454.28 111.589 1456.56 105.37C1458.84 99.0472 1462.73 94.1757 1468.22 90.7553C1473.81 87.3349 1481.37 85.6247 1490.91 85.6247C1500.23 85.6247 1507.48 87.1794 1512.66 90.2889C1517.94 93.2947 1521.67 97.5443 1523.85 103.038C1526.02 108.531 1527.11 114.854 1527.11 122.006V132.889H1499.92V120.295C1499.92 117.808 1499.76 115.424 1499.45 113.144C1499.24 110.863 1498.52 108.998 1497.28 107.547C1496.03 105.992 1493.91 105.214 1490.91 105.214C1488 105.214 1485.83 105.992 1484.38 107.547C1483.03 109.101 1482.15 111.071 1481.74 113.454C1481.43 115.735 1481.27 118.171 1481.27 120.762V179.997C1481.27 182.796 1481.48 185.387 1481.89 187.771C1482.41 190.051 1483.34 191.917 1484.69 193.368C1486.14 194.715 1488.21 195.389 1490.91 195.389C1493.81 195.389 1495.88 194.664 1497.12 193.213C1498.36 191.658 1499.14 189.688 1499.45 187.305C1499.76 184.921 1499.92 182.485 1499.92 179.997V166.782H1527.11V177.665C1527.11 184.817 1526.02 191.243 1523.85 196.944C1521.78 202.541 1518.1 206.998 1512.82 210.315C1507.64 213.528 1500.33 215.134 1490.91 215.134Z" fill="white"/>
<path d="M1542.41 213.269V87.3349H1570.23V194.456H1599.13V213.269H1542.41Z" fill="white"/>
<path d="M1645.24 215.134C1635.61 215.134 1628.05 213.58 1622.56 210.47C1617.17 207.257 1613.39 202.645 1611.21 196.633C1609.04 190.518 1607.95 183.055 1607.95 174.245V87.3349H1635.45V178.442C1635.45 181.034 1635.66 183.625 1636.08 186.216C1636.49 188.807 1637.37 190.932 1638.72 192.591C1640.17 194.249 1642.34 195.078 1645.24 195.078C1648.25 195.078 1650.42 194.249 1651.77 192.591C1653.12 190.932 1653.95 188.807 1654.26 186.216C1654.67 183.625 1654.88 181.034 1654.88 178.442V87.3349H1682.54V174.245C1682.54 183.055 1681.4 190.518 1679.12 196.633C1676.94 202.645 1673.16 207.257 1667.78 210.47C1662.39 213.58 1654.88 215.134 1645.24 215.134Z" fill="white"/>
<path d="M1700.24 213.269V87.3349H1733.02C1738.41 87.3349 1743.49 87.7495 1748.25 88.5787C1753.12 89.4079 1757.42 91.0144 1761.15 93.3984C1764.88 95.6787 1767.78 98.9954 1769.85 103.349C1772.03 107.598 1773.12 113.247 1773.12 120.295C1773.12 125.374 1772.34 129.676 1770.78 133.2C1769.33 136.62 1767.21 139.367 1764.41 141.44C1761.72 143.513 1758.46 144.912 1754.62 145.638C1759.49 146.259 1763.58 147.866 1766.9 150.457C1770.21 152.945 1772.7 156.313 1774.36 160.563C1776.12 164.813 1777 169.943 1777 175.955C1777 182.485 1776.12 188.134 1774.36 192.902C1772.7 197.566 1770.27 201.401 1767.05 204.407C1763.84 207.412 1759.85 209.641 1755.09 211.092C1750.43 212.543 1745.04 213.269 1738.93 213.269H1700.24ZM1728.05 193.834H1733.96C1740.07 193.834 1744.26 192.28 1746.54 189.17C1748.93 186.061 1750.12 181.5 1750.12 175.489C1750.12 170.721 1749.6 166.937 1748.56 164.139C1747.53 161.34 1745.82 159.319 1743.43 158.075C1741.05 156.728 1737.84 156.054 1733.8 156.054H1728.05V193.834ZM1728.05 137.708H1733.49C1737.74 137.708 1740.95 137.086 1743.12 135.843C1745.3 134.495 1746.75 132.578 1747.48 130.09C1748.3 127.603 1748.72 124.597 1748.72 121.073C1748.72 117.756 1748.1 115.009 1746.85 112.833C1745.71 110.552 1743.95 108.842 1741.57 107.702C1739.29 106.562 1736.39 105.992 1732.87 105.992H1728.05V137.708Z" fill="white"/>
</svg>
